<svg xmlns="http://www.w3.org/2000/svg" viewBox="0 0 512 512" role="img" aria-labelledby="title desc">
  <title id="title">Esei Events</title>
  <desc id="desc">Logo de Esei Events con escudo naranja y texto central.</desc>
  <rect width="512" height="512" fill="#f59a12"/>
  <circle cx="256" cy="256" r="221" fill="#f4f4f1"/>
  <path d="M147 132c31-15 69-24 109-24s78 9 109 24v69c0 80-42 144-109 185-67-41-109-105-109-185z" fill="none" stroke="#f59a12" stroke-width="17" stroke-linejoin="round"/>
  <path d="M181 168c22-8 48-13 75-13s53 5 75 13v35c-23-6-48-9-75-9s-52 3-75 9z" fill="none" stroke="#f59a12" stroke-width="16" stroke-linejoin="round"/>
  <g fill="#26272a" stroke="#ffffff" stroke-width="4" stroke-linejoin="round">
    <path d="M94 285c0-52 31-78 84-78 28 0 48 6 62 18 13 11 19 27 19 48 0 8-1 16-3 24H150c4 17 18 26 42 26 18 0 36-3 55-10v37c-20 9-43 13-69 13-56 0-84-26-84-78zm56-23h58c0-17-10-26-29-26-17 0-27 9-29 26z"/>
    <path d="M252 351v-39c20 8 43 12 69 12 20 0 30-4 30-12 0-7-7-11-22-13l-30-4c-33-5-49-20-49-44 0-29 26-44 79-44 23 0 44 3 64 9v38c-19-7-39-10-61-10-20 0-30 4-30 11 0 6 7 10 20 12l31 5c34 5 51 20 51 46 0 31-28 47-83 47-27 0-50-4-69-10z"/>
    <path d="M405 211h54v150h-54z"/>
  </g>
  <text x="256" y="409" text-anchor="middle" font-family="Arial, Helvetica, sans-serif" font-size="39" font-weight="800" letter-spacing="10" fill="#383838">EVENTS</text>
</svg>
